#!OML:ASF H:\ManfredETheater\Project 1\Capture day 1\Session 1\subject.ASF
:FULLY-SPECIFIED
:DEGREES
497
root -0.253598 15.1446 40.2247 10.2776 13.3841 -9.13462
lowerback 17.7036 0.0519868 9.1111
upperback 0.395676 2.25975 3.26334
thorax -9.33705 0.755503 -2.17134
lowerneck -20.9623 -3.04227 -3.15886
upperneck 5.48418 -3.57537 3.30972
head 5.09704 -1.57187 1.19003
rclavicle -1.95803e-014 -2.06736e-014
rhumerus -53.3664 1.16731 -88.7458
rradius 83.3781
rwrist -1.65029
rhand -23.167 2.20294
rfingers 7.12502
rthumb 3.28182 -27.7515
lclavicle -1.95803e-014 -2.06736e-014
lhumerus -63.3882 -4.90775 95.7476
lradius 95.9211
lwrist 7.71971
lhand -30.5463 -17.8689
lfingers 7.12502
lthumb -3.84503 12.0761
rfemur -3.76934 -1.56532 25.8324
rtibia 77.8488
rfoot 5.34246 -5.7574
rtoes -26.7243
lfemur -62.2565 3.80603 -26.8806
ltibia 62.9788
lfoot -6.32379 -10.5331
ltoes 22.882
498
root -0.176913 15.0953 40.6012 9.83949 13.6746 -7.91989
lowerback 18.1853 -0.111879 8.18353
upperback 0.448775 1.87268 2.93903
thorax -9.60021 0.595834 -1.91795
lowerneck -20.6876 -2.94778 -3.15593
upperneck 5.71885 -3.45547 3.22075
head 5.12429 -1.52215 1.17504
rclavicle -3.10104e-014 -4.6118e-014
rhumerus -53.0685 -0.121845 -87.9294
rradius 80.2283
rwrist -1.78195
rhand -23.5643 1.42969
rfingers 7.12502
rthumb 2.89812 -28.5304
lclavicle -3.10104e-014 -4.6118e-014
lhumerus -61.4638 -4.84517 95.9677
lradius 95.5458
lwrist 8.17352
lhand -30.5225 -17.954
lfingers 7.12502
lthumb -3.82199 11.9914
rfemur -6.15652 -2.70258 23.5867
rtibia 82.1836
rfoot 3.92574 -6.59474
rtoes -25.5936
lfemur -60.9324 3.40885 -27.9999
ltibia 64.936
lfoot -8.32166 -10.0656
ltoes 22.5171
499
root -0.0998695 15.0482 40.969 9.56488 14.0133 -6.77315
lowerback 18.5103 -0.266609 7.40951
upperback 0.462353 1.50699 2.62294
thorax -9.80712 0.442794 -1.73862
lowerneck -20.4581 -2.8768 -3.18472
upperneck 5.99569 -3.35542 3.11093
head 5.17238 -1.48398 1.15575
rclavicle 3.4191e-014 3.97569e-015
rhumerus -52.8535 -1.46109 -87.0512
rradius 77.1485
rwrist -2.21741
rhand -24.0344 0.519899
rfingers 7.12502
rthumb 2.44418 -29.4458
lclavicle 3.4191e-014 3.97569e-015
lhumerus -59.3894 -4.99263 96.2113
lradius 95.0975
lwrist 8.57367
lhand -30.4341 -18.0561
lfingers 7.12502
lthumb -3.73662 11.8908
rfemur -8.87881 -3.78596 21.4376
rtibia 86.2792
rfoot 2.44415 -7.28183
rtoes -24.4902
lfemur -59.6561 3.12405 -29.1338
ltibia 66.6163
lfoot -10.2323 -9.71285
ltoes 22.4493
500
root -0.0215576 15.0038 41.3289 9.42045 14.3644 -5.78649
lowerback 18.686 -0.412751 6.86933
upperback 0.440404 1.18782 2.33764
thorax -9.958 0.304141 -1.66403
lowerneck -20.2916 -2.82678 -3.25317
upperneck 6.3333 -3.2706 2.9894
head 5.25026 -1.45464 1.13665
rclavicle -4.48259e-014 -1.90833e-014
rhumerus -52.7429 -2.79741 -86.1148
rradius 74.1951
rwrist -2.90861
rhand -24.5506 -0.483798
rfingers 7.12502
rthumb 1.9456 -30.4547
lclavicle -4.48259e-014 -1.90833e-014
lhumerus -57.2256 -5.31344 96.4565
lradius 94.6323
lwrist 8.82823
lhand -30.2551 -18.1753
lfingers 7.12502
lthumb -3.5638 11.7747
rfemur -11.9143 -4.77141 19.5201
rtibia 90.0624
rfoot 0.94727 -7.86086
rtoes -23.4176
lfemur -58.3891 2.9941 -30.1801
ltibia 68.014
lfoot -12.1443 -9.42859
ltoes 22.8892
501
root 0.0588674 14.9639 41.6823 9.3451 14.7051 -5.01979
lowerback 18.7529 -0.556708 6.60088
upperback 0.394923 0.924186 2.10052
thorax -10.0653 0.181662 -1.70215
lowerneck -20.1995 -2.78482 -3.319
upperneck 6.7383 -3.19154 2.83502
head 5.36062 -1.43017 1.1052
rclavicle -2.8625e-014 3.57812e-015
rhumerus -52.7482 -4.06251 -85.1448
rradius 71.4234
rwrist -3.77859
rhand -25.0931 -1.49562
rfingers 7.12502
rthumb 1.42163 -31.4706
lclavicle -2.8625e-014 3.57812e-015
lhumerus -55.0424 -5.75144 96.686
lradius 94.2202
lwrist 8.83123
lhand -30.0107 -18.3398
lfingers 7.12502
lthumb -3.32775 11.614
rfemur -15.1889 -5.60652 17.9443
rtibia 93.4522
rfoot -0.493515 -8.40318
rtoes -22.6769
lfemur -57.0754 3.03059 -31.0513
ltibia 69.1287
lfoot -14.1095 -9.19819
ltoes 23.9
502
root 0.140917 14.9307 42.0302 9.30283 15.0192 -4.4653
lowerback 18.7553 -0.700573 6.55714
upperback 0.333969 0.709353 1.917
thorax -10.1489 0.0734668 -1.82054
lowerneck -20.1862 -2.73869 -3.35826
upperneck 7.20168 -3.10643 2.64409
head 5.50082 -1.40471 1.05762
rclavicle 5.36719e-015 -2.82274e-014
rhumerus -52.8614 -5.18582 -84.1684
rradius 68.8751
rwrist -4.71042
rhand -25.6284 -2.37798
rfingers 7.12502
rthumb 0.904693 -32.3558
lclavicle 5.36719e-015 -2.82274e-014
lhumerus -52.9173 -6.23685 96.8849
lradius 93.9444
lwrist 8.51195
lhand -29.7236 -18.523
lfingers 7.12502
lthumb -3.05049 11.4349
rfemur -18.6532 -6.24643 16.7378
rtibia 96.3922
rfoot -1.84956 -8.94754
rtoes -22.1827
lfemur -55.6804 3.21201 -31.7173
ltibia 69.9607
lfoot -16.1282 -9.04154
ltoes 25.306
503
root 0.224565 14.9065 42.3739 9.29597 15.3147 -4.03664
lowerback 18.7131 -0.848641 6.63207
upperback 0.259275 0.515343 1.77224
thorax -10.2223 -0.0296284 -1.96874
lowerneck -20.2471 -2.67915 -3.36095
upperneck 7.707 -3.00582 2.42611
head 5.6651 -1.3729 0.996458
rclavicle -5.4467e-014 4.37326e-014
rhumerus -53.0785 -6.10566 -83.2175
rradius 66.5981
rwrist -5.57137
rhand -26.0921 -3.02151
rfingers 7.12502
rthumb 0.456828 -33.0008
lclavicle -5.4467e-014 4.37326e-014
lhumerus -50.9162 -6.70978 97.0501
lradius 93.8687
lwrist 7.84599
lhand -29.4254 -18.7038
lfingers 7.12502
lthumb -2.76252 11.258
rfemur -22.2488 -6.6941 15.8129
rtibia 98.8335
rfoot -3.09173 -9.47661
rtoes -22.2303
lfemur -54.1889 3.46214 -32.2337
ltibia 70.5136
lfoot -18.1525 -8.97788
ltoes 26.9591
504
root 0.30894 14.8919 42.7145 9.31666 15.6065 -3.65706
lowerback 18.6565 -1.00918 6.72373
upperback 0.174907 0.310626 1.65647
thorax -10.3011 -0.138239 -2.0915
lowerneck -20.3713 -2.59592 -3.3233
upperneck 8.23425 -2.87856 2.19633
head 5.84563 -1.3282 0.927395
rclavicle -3.15074e-014 1.47101e-014
rhumerus -53.3918 -6.77032 -82.3261
rradius 64.6322
rwrist -6.22051
rhand -26.4337 -3.34419
rfingers 7.12502
rthumb 0.126888 -33.3239
lclavicle -3.15074e-014 1.47101e-014
lhumerus -49.0941 -7.12645 97.1846
lradius 94.0459
lwrist 6.89923
lhand -29.182 -18.8593
lfingers 7.12502
lthumb -2.52746 11.1055
rfemur -25.9096 -6.95912 15.0761
rtibia 100.755
rfoot -4.23631 -9.94506
rtoes -22.6405
lfemur -52.5888 3.70549 -32.6485
ltibia 70.8133
lfoot -20.1307 -8.97415
ltoes 28.5892
505
root 0.393317 14.8853 43.0529 9.36087 15.9174 -3.28253
lowerback 18.6047 -1.1927 6.78099
upperback 0.0857923 0.0713103 1.5656
thorax -10.3926 -0.261221 -2.15783
lowerneck -20.5713 -2.48656 -3.25494
upperneck 8.77249 -2.72049 1.97131
head 6.04161 -1.2675 0.857814
rclavicle 3.20043e-014 -2.34566e-014
rhumerus -53.7856 -7.17037 -81.5071
rradius 63.0099
rwrist -6.5594
rhand -26.5951 -3.31381
rfingers 7.12502
rthumb -0.0290487 -33.2935
lclavicle 3.20043e-014 -2.34566e-014
lhumerus -47.4787 -7.47231 97.3002
lradius 94.5113
lwrist 5.8142
lhand -29.048 -18.9342
lfingers 7.12502
lthumb -2.39803 11.032
rfemur -29.5683 -7.06487 14.4647
rtibia 102.145
rfoot -5.29046 -10.3078
rtoes -23.4828
lfemur -50.9013 3.87008 -32.9927
ltibia 70.9037
lfoot -21.9955 -9.00009
ltoes 30.0122
506
root 0.476748 14.8835 43.3896 9.41914 16.249 -2.881
lowerback 18.5716 -1.4009 6.76477
upperback -0.0101564 -0.212657 1.49381
thorax -10.5071 -0.40163 -2.14888
lowerneck -20.7819 -2.35103 -3.15212
upperneck 9.27389 -2.53471 1.75139
head 6.22763 -1.19246 0.787778
rclavicle -5.96354e-015 1.27222e-014
rhumerus -54.2746 -7.3041 -80.7728
rradius 61.7553
rwrist -6.5412
rhand -26.5647 -2.9509
rfingers 7.12502
rthumb 0.000298827 -32.9306
lclavicle -5.96354e-015 1.27222e-014
lhumerus -46.104 -7.7624 97.406
lradius 95.2695
lwrist 4.81201
lhand -29.029 -18.9178
lfingers 7.12502
lthumb -2.37969 11.0487
rfemur -33.1753 -7.03274 13.9132
rtibia 103.019
rfoot -6.30972 -10.5291
rtoes -24.5541
lfemur -49.1519 3.92046 -33.2997
ltibia 70.8445
lfoot -23.6962 -9.00423
ltoes 31.0577
507
root 0.559498 14.8873 43.7255 9.49854 16.6147 -2.47393
lowerback 18.5514 -1.63631 6.70247
upperback -0.0977785 -0.538625 1.45303
thorax -10.6229 -0.557983 -2.06751
lowerneck -21.0843 -2.19888 -3.05114
upperneck 9.75326 -2.32421 1.55218
head 6.42221 -1.104 0.727318
rclavicle 7.97127e-014 -7.55382e-015
rhumerus -54.8049 -7.21169 -80.1114
rradius 60.8695
rwrist -6.18455
rhand -26.3457 -2.32916
rfingers 7.12502
rthumb 0.211833 -32.3088
lclavicle 7.97127e-014 -7.55382e-015
lhumerus -44.9157 -8.03193 97.5143
lradius 96.2963
lwrist 4.1027
lhand -29.1031 -18.7839
lfingers 7.12502
lthumb -2.45126 11.1818
rfemur -36.6885 -6.87798 13.4279
rtibia 103.424
rfoot -7.35482 -10.6048
rtoes -25.8223
lfemur -47.3958 3.83199 -33.5564
ltibia 70.7491
lfoot -25.2643 -8.93224
ltoes 31.6739
508
root 0.641943 14.896 44.0617 9.5936 17.0013 -2.09078
lowerback 18.5238 -1.89365 6.62854
upperback -0.18927 -0.893226 1.44494
thorax -10.7403 -0.725838 -1.93481
lowerneck -21.363 -2.03207 -2.92845
upperneck 10.1495 -2.09776 1.34495
head 6.58671 -1.00847 0.663527
rclavicle 6.38099e-014 -2.46493e-014
rhumerus -55.4046 -6.94484 -79.5061
rradius 60.3442
rwrist -5.52513
rhand -25.9722 -1.56404
rfingers 7.12502
rthumb 0.572554 -31.543
lclavicle 6.38099e-014 -2.46493e-014
lhumerus -43.9395 -8.31437 97.6269
lradius 97.562
lwrist 3.87313
lhand -29.2229 -18.541
lfingers 7.12502
lthumb -2.56697 11.4233
rfemur -40.0829 -6.60339 13.0184
rtibia 103.342
rfoot -8.42036 -10.4911
rtoes -26.9764
lfemur -45.6545 3.62495 -33.7489
ltibia 70.647
lfoot -26.7083 -8.77211
ltoes 31.9158
509
root 0.712289 14.8539 44.3904 9.81773 17.5393 -1.59124
lowerback 18.4154 -2.19712 6.54045
upperback -0.365089 -1.32184 1.38221
thorax -10.913 -0.932405 -1.83256
lowerneck -21.5843 -1.85481 -2.81775
upperneck 10.6841 -1.86929 1.22238
head 6.7898 -0.906077 0.630122
rclavicle -2.88238e-014 -2.98177e-014
rhumerus -56.0393 -6.58783 -78.9152
rradius 59.5129
rwrist -4.82278
rhand -25.5499 -0.616472
rfingers 7.12502
rthumb 0.980505 -30.594
lclavicle -2.88238e-014 -2.98177e-014
lhumerus -42.8701 -8.40581 97.6831
lradius 98.7895
lwrist 2.28883
lhand -29.6512 -17.999
lfingers 7.12502
lthumb -2.9806 11.9599
rfemur -43.3863 -6.5804 12.2387
rtibia 103.138
rfoot -9.14061 -10.4847
rtoes -29.4954
lfemur -44.1934 3.19402 -34.0106
ltibia 70.622
lfoot -28.0016 -8.86967
ltoes 32.4686
